<svg xmlns="http://www.w3.org/2000/svg" viewBox="0 0 120 90" width="120" height="90">
<rect width="120" height="90" fill="#eee"/>
<rect x="0.000" y="0.000" width="60.000" height="45.000" fill="#fff"/>
<rect x="60.000" y="0.000" width="60.000" height="45.000" fill="#d21034"/>
<rect x="0.000" y="45.000" width="60.000" height="45.000" fill="#005293"/>
<rect x="60.000" y="45.000" width="60.000" height="45.000" fill="#fff"/>
<polygon points="30.000,13.500 33.600,21.600 45.600,21.600 36.000,27.000 39.600,35.100 30.000,29.700 20.400,35.100 24.000,27.000 14.400,21.600 26.400,21.600" fill="#005293"/>
<polygon points="90.000,58.500 93.600,66.600 105.600,66.600 96.000,72.000 99.600,80.100 90.000,74.700 80.400,80.100 84.000,72.000 74.400,66.600 86.400,66.600" fill="#d21034"/>
</svg>